<?xml version="1.0" encoding="UTF-8"?>
<svg id="Layer_2" xmlns="http://www.w3.org/2000/svg" xmlns:xlink="http://www.w3.org/1999/xlink" viewBox="0 0 52 52">
  <defs>
    <style>
      .cls-1 {
        fill: #fff;
      }

      .cls-2 {
        fill: #83b3ee;
      }

      .cls-3 {
        fill: none;
      }

      .cls-4 {
        fill: #327fdf;
      }

      .cls-5 {
        fill: #1f1f1f;
      }

      .cls-6 {
        fill: #397fdd;
      }

      .cls-7 {
        fill: #d4e3f7;
      }

      .cls-8 {
        opacity: .1;
      }

      .cls-9 {
        clip-path: url(#clippath);
      }
    </style>
    <clipPath id="clippath">
      <rect class="cls-3" y="0" width="52" height="52"/>
    </clipPath>
  </defs>
  <rect class="cls-7" y="0" width="52" height="52"/>
  <g class="cls-9">
    <g class="cls-8">
      <polygon class="cls-4" points="52.89 11.74 .49 41.97 .49 102.44 52.89 72.21 52.89 11.74"/>
    </g>
  </g>
  <g>
    <g>
      <g>
        <g>
          <path class="cls-6" d="M22.03,24.36c.82,0,1.48.66,1.48,1.48v1.47h11.82v-1.47c0-.82.66-1.48,1.48-1.48h3.34c1.47,0,2.72,1.08,2.92,2.54l2.08,14.75c.27,1.79-1.11,3.4-2.91,3.4h-.81c-2.71,0-5.08-1.85-5.74-4.48l-.36-1.43h-11.82l-.36,1.43c-.66,2.63-3.02,4.48-5.74,4.48h-.8c-1.81,0-3.2-1.61-2.92-3.4l2.07-14.74c.21-1.46,1.45-2.55,2.93-2.55h3.33Z"/>
          <path class="cls-6" d="M42.9,45.85h-.81c-3.09,0-5.77-2.09-6.52-5.09l-.21-.82h-10.57l-.2.82c-.75,3-3.43,5.09-6.52,5.09h-.8c-1.1,0-2.14-.48-2.85-1.31-.72-.83-1.03-1.93-.86-3.02l2.07-14.73c.26-1.85,1.86-3.24,3.72-3.24h3.33c1.26,0,2.29,1.03,2.29,2.29v.67h10.22v-.67c0-1.26,1.03-2.29,2.29-2.29h3.34c1.86,0,3.45,1.39,3.72,3.23l2.07,14.75c.16,1.07-.15,2.17-.86,3-.71.83-1.75,1.31-2.85,1.31ZM23.55,38.34h13.08l.51,2.04c.57,2.28,2.61,3.87,4.96,3.87h.81c.63,0,1.22-.27,1.63-.75.41-.48.59-1.1.49-1.72l-2.08-14.76c-.15-1.05-1.06-1.85-2.13-1.85h-3.34c-.37,0-.68.31-.68.68v2.27h-13.43v-2.27c0-.38-.31-.68-.68-.68h-3.33c-1.07,0-1.99.8-2.13,1.86l-2.07,14.74c-.1.63.08,1.26.49,1.74.41.48,1.01.75,1.63.75h.8c2.35,0,4.39-1.59,4.96-3.87l.51-2.04Z"/>
        </g>
        <circle class="cls-1" cx="39.77" cy="30.65" r="1.49"/>
        <circle class="cls-1" cx="39.77" cy="35.66" r="1.49"/>
        <circle class="cls-1" cx="37.33" cy="33.16" r="1.49"/>
        <circle class="cls-1" cx="42.19" cy="33.16" r="1.49"/>
        <g>
          <path class="cls-1" d="M19.71,32.74l-.82-.82c-.11-.11-.26-.17-.41-.17h-1.44c-.32,0-.58.26-.58.58v1.63c0,.32.26.58.58.58h1.44c.15,0,.3-.06.41-.17l.82-.82c.23-.23.23-.59,0-.82Z"/>
          <path class="cls-1" d="M20.91,32.37l.82-.82c.11-.11.17-.26.17-.41v-1.44c0-.32-.26-.58-.58-.58h-1.63c-.32,0-.58.26-.58.58v1.44c0,.15.06.3.17.41l.82.82c.23.23.59.23.82,0Z"/>
          <path class="cls-1" d="M20.09,33.94l-.82.82c-.11.11-.17.26-.17.41v1.44c0,.32.26.58.58.58h1.63c.32,0,.58-.26.58-.58v-1.44c0-.15-.06-.3-.17-.41l-.82-.82c-.23-.23-.59-.23-.82,0Z"/>
          <path class="cls-1" d="M22.1,31.93l-.82.82c-.23.23-.23.59,0,.82l.82.82c.11.11.26.17.41.17h1.44c.32,0,.58-.26.58-.58v-1.63c0-.32-.26-.58-.58-.58h-1.44c-.15,0-.3.06-.41.17Z"/>
        </g>
      </g>
      <path class="cls-5" d="M35.24,27.02h-10.26c-.28,0-.5-.22-.5-.5s.22-.5.5-.5h9.77c.04-.58.2-1.51.82-2.18.48-.52,1.12-.78,1.92-.78h4.17c.28,0,.5.22.5.5s-.22.5-.5.5h-4.17c-.51,0-.9.15-1.18.46-.63.69-.56,1.95-.56,1.96.01.14-.04.28-.13.38-.09.1-.23.16-.37.16Z"/>
    </g>
    <g>
      <g>
        <path class="cls-2" d="M13.87,18.92l2.72,3.67,8.05-5.98,1.46,1.96c.37.51,1.09.61,1.59.24l2.05-1.53c.5-.37.61-1.09.24-1.59l-1.46-1.96,1.29-.96,1.46,1.96c.37.51,1.09.61,1.59.24l2.05-1.53c.51-.37.61-1.09.24-1.59l-1.46-1.96-2.3-3.09-.43-.58-17.11,12.71Z"/>
        <path class="cls-2" d="M5.97,18.65c-3.42,2.54-4.13,7.36-1.59,10.77,2.54,3.42,7.36,4.13,10.77,1.59,3.42-2.54,4.13-7.36,1.59-10.77-2.54-3.42-7.36-4.13-10.77-1.59ZM12.88,27.95c-1.72,1.28-4.16.92-5.44-.8-1.28-1.72-.92-4.16.8-5.44,1.72-1.28,4.16-.92,5.44.8,1.28,1.72.92,4.16-.8,5.44Z"/>
      </g>
      <path class="cls-5" d="M14.45,18.99c-.15,0-.3-.07-.4-.2-.17-.22-.12-.53.1-.7L30.69,5.81c.11-.08.24-.11.37-.09.13.02.25.09.33.2l3.95,5.32c.17.22.12.54-.1.7s-.54.12-.7-.1l-3.65-4.92-16.13,11.98c-.09.07-.19.1-.3.1Z"/>
      <path class="cls-5" d="M10.31,29.17c-1.08,0-2.26-.43-3.26-1.71-1.86-2.37-.26-5.03.85-6.1.2-.19.52-.19.71,0,.19.2.19.51,0,.71-.1.1-2.52,2.51-.76,4.77,2,2.56,4.63.63,4.74.55.22-.17.53-.12.7.1.17.22.12.53-.1.7-.63.48-1.7.98-2.87.98Z"/>
    </g>
  </g>
</svg>